<?xml version="1.0" encoding="UTF-8"?><svg id="Layer_1" xmlns="http://www.w3.org/2000/svg" viewBox="0 0 292.63 363.37"><defs><style>.cls-1{fill:#fff;}.cls-2{fill:#fae100;}</style></defs><path d="m280.49,139.59c15.14-28.55,16.18-63.97,2.78-94.75-9.66-22.18-25.22-38.04-41.62-42.44l-8.96-2.4-53.73,153.3-32.65-50.65-32.64,50.66L59.94,0l-8.96,2.4C34.58,6.79,19.02,22.66,9.36,44.83c-13.4,30.78-12.36,66.2,2.78,94.75,3.28,6.18,7.98,14.54,13.24,23.67H8l4.94,47.9,42.64,25.37-8.08,5.21-4.31,66.32h25.36l9.69-45.77,5.06-2.08,2.82.39,60.23,102.79,59.62-102.71,3.38-.46,5.06,2.08,9.68,45.77h25.36l-4.32-66.32-8.08-5.22,42.63-25.36,4.94-47.9h-17.38c5.26-9.13,9.96-17.49,13.24-23.67ZM22.37,205.13l-3.29-31.87h6.59l9.1,24.22,14.74,9.75,13.01,21.78-40.15-23.89Zm50.09,18.08s-38.15-63.18-51.48-88.31C-6.79,82.56,23.05,20.23,53.57,12.06l52.81,150.68-33.92,60.47Zm73.85,120.31l-46.91-80.05,46.9,7.44,46.4-7.32-46.39,79.93Zm73.86-120.31l-33.92-60.47L239.06,12.06c30.52,8.17,60.35,70.5,32.59,122.84-13.33,25.13-51.48,88.31-51.48,88.31Zm53.38-49.95l-3.29,31.87-40.15,23.89,13.01-21.78,14.74-9.75,9.1-24.22h6.59Z"/><polygon class="cls-2" points="174.41 164.69 146.31 121.11 118.23 164.69 146.31 207.73 174.41 164.69"/><polygon class="cls-2" points="212.22 232.38 180.71 176.62 146.31 228.28 111.93 176.62 80.42 232.38 57.15 247.4 53.86 298.06 60.44 298.06 69.54 255.05 81.98 249.93 146.31 258.77 210.65 249.93 223.1 255.05 232.19 298.06 238.78 298.06 235.48 247.4 212.22 232.38"/><path class="cls-1" d="m72.46,223.21s-38.15-63.18-51.48-88.31C-6.79,82.56,23.05,20.23,53.57,12.06l52.81,150.68-33.92,60.47Z"/><polygon class="cls-1" points="146.31 343.52 99.4 263.47 146.3 270.91 192.7 263.59 146.31 343.52"/><path class="cls-1" d="m220.17,223.21l-33.92-60.47L239.06,12.06c30.52,8.17,60.35,70.5,32.59,122.84-13.33,25.13-51.48,88.31-51.48,88.31Z"/><polygon class="cls-1" points="22.37 205.13 19.08 173.26 25.67 173.26 34.77 197.48 49.51 207.23 62.52 229.01 22.37 205.13"/><polygon class="cls-1" points="273.55 173.26 270.26 205.13 230.11 229.01 243.12 207.23 257.86 197.48 266.95 173.26 273.55 173.26"/></svg>